<svg width="250" height="48" viewBox="0 0 250 48" fill="none" xmlns="http://www.w3.org/2000/svg">
<g clip-path="url(#clip0_13_2)">
<path d="M36.4011 31.7953L37.2519 32.3207L37.2519 32.3207L36.4011 31.7953ZM36.777 31.3908L37.3623 32.2017L37.3623 32.2017L36.777 31.3908ZM38.7863 33.3035L37.9355 32.7781L38.7863 33.3035ZM35.1325 13.4379L34.3627 14.0762L34.3627 14.0762L35.1325 13.4379ZM35.4561 14.4767L36.4524 14.5628L36.4524 14.5628L35.4561 14.4767ZM32.9779 15.2674L32.2081 15.9057L32.2081 15.9057L32.9779 15.2674ZM16.4336 6.3471L16.0551 5.42147L16.0551 5.42147L16.4336 6.3471ZM27.705 5.54954L27.4604 6.51915L27.4604 6.51915L27.705 5.54954ZM7.85033 24.592L6.85271 24.6609L6.85271 24.6609L7.85033 24.592ZM10.1633 15.2047L9.31242 14.6793L9.31242 14.6793L10.1633 15.2047ZM27.0246 8.31115L26.7799 9.28076L26.7799 9.28076L27.0246 8.31115ZM20.2202 35.9272L19.9755 36.8969L19.9755 36.8969L20.2202 35.9272ZM18.5408 11.6249L18.9192 12.5505L18.5408 11.6249ZM26.3441 11.0728L26.5888 10.1031L26.5888 10.1031L26.3441 11.0728ZM37.2519 32.3207C37.2811 32.2733 37.3188 32.233 37.3623 32.2017L36.1918 30.58C35.9345 30.7657 35.7167 31.0002 35.5502 31.2699L37.2519 32.3207ZM37.3623 32.2017C37.4057 32.1703 37.4542 32.1484 37.5048 32.1366L37.0498 30.189C36.7406 30.2612 36.449 30.3943 36.1918 30.58L37.3623 32.2017ZM37.5048 32.1366C37.5554 32.1247 37.6077 32.1231 37.6588 32.1318L37.9927 30.1599C37.6796 30.1068 37.3591 30.1167 37.0498 30.189L37.5048 32.1366ZM37.6588 32.1318C37.71 32.1404 37.7595 32.1593 37.8045 32.1877L38.8734 30.4973C38.6051 30.3277 38.3059 30.2129 37.9927 30.1599L37.6588 32.1318ZM37.8045 32.1877C37.8495 32.2162 37.8893 32.2539 37.9212 32.2991L39.5559 31.1468C39.3733 30.8878 39.1416 30.6669 38.8734 30.4973L37.8045 32.1877ZM37.9212 32.2991C37.9531 32.3444 37.9763 32.3962 37.989 32.4517L39.9389 32.0068C39.8685 31.6981 39.7385 31.4059 39.5559 31.1468L37.9212 32.2991ZM37.989 32.4517C38.0017 32.5072 38.0034 32.5648 37.9941 32.6211L39.9673 32.9474C40.019 32.6351 40.0093 32.3155 39.9389 32.0068L37.989 32.4517ZM37.9941 32.6211C37.9848 32.6774 37.9647 32.7307 37.9355 32.7781L39.6372 33.8289C39.8036 33.5593 39.9157 33.2598 39.9673 32.9474L37.9941 32.6211ZM34.3627 14.0762C34.4338 14.1619 34.4699 14.275 34.4599 14.3905L36.4524 14.5628C36.5075 13.9264 36.3107 13.2921 35.9023 12.7996L34.3627 14.0762ZM34.4599 14.3905C34.4499 14.506 34.3952 14.6098 34.3119 14.6805L35.6064 16.2051C36.0946 15.7906 36.3974 15.1993 36.4524 14.5628L34.4599 14.3905ZM34.3119 14.6805C34.229 14.7508 34.1243 14.7834 34.0208 14.7742L33.8444 16.7664C34.484 16.823 35.1178 16.6199 35.6064 16.2051L34.3119 14.6805ZM34.0208 14.7742C33.9171 14.765 33.8184 14.7144 33.7477 14.6291L32.2081 15.9057C32.6169 16.3986 33.205 16.7098 33.8444 16.7664L34.0208 14.7742ZM37.9355 32.7781C35.9999 35.9126 33.1347 38.3444 29.7523 39.7273L30.5092 41.5785C34.2862 40.0343 37.4809 37.3208 39.6372 33.8289L37.9355 32.7781ZM29.7523 39.7273C26.3701 41.1101 22.6428 41.3737 19.1039 40.4808L18.6147 42.4201C22.5681 43.4175 26.7321 43.1228 30.5092 41.5785L29.7523 39.7273ZM19.1039 40.4808C15.565 39.588 12.3941 37.5838 10.047 34.7532L8.50744 36.0299C11.1237 39.1849 14.6614 41.4227 18.6147 42.4201L19.1039 40.4808ZM10.047 34.7532C7.69971 31.9225 6.29712 28.411 6.04217 24.7215L4.04693 24.8594C4.33061 28.9646 5.89136 32.875 8.50744 36.0299L10.047 34.7532ZM6.04217 24.7215C5.78722 21.0321 6.69319 17.3565 8.62887 14.2219L6.92717 13.1711C4.77102 16.6628 3.76325 20.7543 4.04693 24.8594L6.04217 24.7215ZM8.62887 14.2219C10.5645 11.0874 13.4296 8.65558 16.812 7.27273L16.0551 5.42147C12.2781 6.96565 9.08343 9.67923 6.92717 13.1711L8.62887 14.2219ZM16.812 7.27273C20.1942 5.88994 23.9215 5.6263 27.4604 6.51915L27.9497 4.57992C23.9962 3.58248 19.8323 3.87723 16.0551 5.42147L16.812 7.27273ZM27.4604 6.51915C30.9906 7.40982 35.2981 10.2542 37.2501 13.678L38.9875 12.6874C36.7206 8.71116 31.9117 5.57955 27.9497 4.57992L27.4604 6.51915ZM35.5502 31.2699C33.9294 33.8946 31.5304 35.9307 28.6987 37.0884L29.4556 38.9396C32.6818 37.6206 35.4104 35.3028 37.2519 32.3207L35.5502 31.2699ZM28.6987 37.0884C25.8672 38.246 22.7469 38.4667 19.7844 37.7192L19.2951 39.6585C22.6722 40.5105 26.2292 40.2587 29.4556 38.9396L28.6987 37.0884ZM19.7844 37.7192C16.8217 36.9718 14.1669 35.2939 12.2016 32.9238L10.662 34.2004C12.8965 36.895 15.9181 38.8065 19.2951 39.6585L19.7844 37.7192ZM12.2016 32.9238C10.2361 30.5535 9.06147 27.6128 8.84795 24.523L6.85271 24.6609C7.09496 28.1665 8.42777 31.506 10.662 34.2004L12.2016 32.9238ZM8.84795 24.523C8.63444 21.4332 9.3932 18.3551 11.0141 15.7301L9.31242 14.6793C7.47103 17.6613 6.61047 21.1553 6.85271 24.6609L8.84795 24.523ZM11.0141 15.7301C12.6349 13.1054 15.034 11.0693 17.8656 9.91164L17.1087 8.06038C13.8825 9.3794 11.1539 11.6972 9.31242 14.6793L11.0141 15.7301ZM17.8656 9.91164C20.6971 8.754 23.8174 8.53332 26.7799 9.28076L27.2692 7.34153C23.8921 6.4895 20.3352 6.74129 17.1087 8.06038L17.8656 9.91164ZM26.7799 9.28076C29.7426 10.0282 32.3974 11.7061 34.3627 14.0762L35.9023 12.7996C33.6678 10.105 30.6462 8.19354 27.2692 7.34153L26.7799 9.28076ZM33.6061 29.0316C32.0786 31.5639 29.889 33.532 27.6451 34.4495L28.4019 36.3007C31.1145 35.1917 33.6116 32.8946 35.3187 30.0646L33.6061 29.0316ZM27.6451 34.4495C25.3643 35.3819 22.851 35.5597 20.4648 34.9576L19.9755 36.8969C22.7763 37.6035 25.7262 37.3946 28.4019 36.3007L27.6451 34.4495ZM20.4648 34.9576C18.0785 34.3556 15.9398 33.004 14.3562 31.0943L12.8167 32.3709C14.6693 34.6051 17.1749 36.1903 19.9755 36.8969L20.4648 34.9576ZM14.3562 31.0943C12.7725 29.1845 11.8258 26.8147 11.6537 24.3245L9.6585 24.4624C9.85931 27.3684 10.9642 30.1369 12.8167 32.3709L14.3562 31.0943ZM11.6537 24.3245C11.4817 21.8342 12.0932 19.3536 13.3994 17.2384L11.6977 16.1875C10.171 18.6598 9.45768 21.5564 9.6585 24.4624L11.6537 24.3245ZM13.3994 17.2384C14.7054 15.1233 16.6383 13.4831 18.9192 12.5505L18.1624 10.6993C15.4868 11.7932 13.2244 13.7151 11.6977 16.1875L13.3994 17.2384ZM18.9192 12.5505C21.2 11.6181 23.7133 11.4403 26.0995 12.0424L26.5888 10.1031C23.788 9.39651 20.8381 9.60536 18.1624 10.6993L18.9192 12.5505ZM26.0995 12.0424C28.4858 12.6444 30.6246 13.996 32.2081 15.9057L33.7477 14.6291C31.895 12.3949 29.3894 10.8097 26.5888 10.1031L26.0995 12.0424Z" fill="white"/>
<path d="M56.328 15.752C59.464 15.752 61.944 16.664 63.768 18.488C65.592 20.312 66.504 22.936 66.504 26.36V41H64.104V26.552C64.104 23.736 63.384 21.592 61.944 20.12C60.536 18.648 58.552 17.912 55.992 17.912C53.048 17.912 50.728 18.792 49.032 20.552C47.336 22.312 46.488 24.68 46.488 27.656V41H44.088V5.384H46.488V21.176C47.352 19.448 48.632 18.12 50.328 17.192C52.024 16.232 54.024 15.752 56.328 15.752ZM97.5998 29.048H76.0478C76.1118 31 76.6078 32.744 77.5358 34.28C78.4638 35.784 79.7118 36.952 81.2798 37.784C82.8798 38.616 84.6718 39.032 86.6558 39.032C88.2878 39.032 89.7918 38.744 91.1678 38.168C92.5758 37.56 93.7438 36.68 94.6718 35.528L96.0638 37.112C94.9758 38.424 93.5998 39.432 91.9358 40.136C90.3038 40.84 88.5278 41.192 86.6078 41.192C84.1118 41.192 81.8878 40.648 79.9358 39.56C77.9838 38.472 76.4478 36.968 75.3278 35.048C74.2398 33.128 73.6958 30.936 73.6958 28.472C73.6958 26.04 74.2078 23.864 75.2318 21.944C76.2878 19.992 77.7278 18.472 79.5518 17.384C81.3758 16.296 83.4238 15.752 85.6958 15.752C87.9678 15.752 89.9998 16.296 91.7918 17.384C93.6158 18.44 95.0398 19.928 96.0638 21.848C97.1198 23.768 97.6478 25.944 97.6478 28.376L97.5998 29.048ZM85.6958 17.864C83.9358 17.864 82.3518 18.264 80.9438 19.064C79.5358 19.832 78.3998 20.936 77.5358 22.376C76.7038 23.784 76.2238 25.384 76.0958 27.176H95.2958C95.1998 25.384 94.7198 23.784 93.8558 22.376C92.9918 20.968 91.8558 19.864 90.4478 19.064C89.0398 18.264 87.4558 17.864 85.6958 17.864ZM112.608 7.256C109.472 7.256 107.904 8.936 107.904 12.296V15.944H115.92V18.008H107.952V41H105.552V18.008H100.944V15.944H105.552V12.104C105.552 9.992 106.16 8.312 107.376 7.064C108.592 5.816 110.304 5.192 112.512 5.192C113.472 5.192 114.384 5.336 115.248 5.624C116.144 5.88 116.88 6.28 117.456 6.824L116.496 8.648C115.472 7.72 114.176 7.256 112.608 7.256ZM133.254 39.416C132.646 39.992 131.878 40.44 130.95 40.76C130.054 41.048 129.11 41.192 128.118 41.192C125.942 41.192 124.262 40.6 123.078 39.416C121.894 38.2 121.302 36.52 121.302 34.376V18.008H116.694V15.944H121.302V10.472H123.702V15.944H131.67V18.008H123.702V34.136C123.702 35.768 124.086 37.016 124.854 37.88C125.654 38.712 126.822 39.128 128.358 39.128C129.926 39.128 131.222 38.664 132.246 37.736L133.254 39.416ZM148.395 15.752C151.499 15.752 153.883 16.552 155.547 18.152C157.211 19.72 158.043 22.04 158.043 25.112V41H155.739V36.536C154.939 38.008 153.771 39.16 152.235 39.992C150.699 40.792 148.859 41.192 146.715 41.192C143.931 41.192 141.723 40.536 140.091 39.224C138.491 37.912 137.691 36.184 137.691 34.04C137.691 31.96 138.427 30.28 139.899 29C141.403 27.688 143.787 27.032 147.051 27.032H155.643V25.016C155.643 22.68 155.003 20.904 153.723 19.688C152.475 18.472 150.635 17.864 148.203 17.864C146.539 17.864 144.939 18.152 143.403 18.728C141.899 19.304 140.619 20.072 139.563 21.032L138.363 19.304C139.611 18.184 141.115 17.32 142.875 16.712C144.635 16.072 146.475 15.752 148.395 15.752ZM147.051 39.224C149.131 39.224 150.891 38.744 152.331 37.784C153.803 36.824 154.907 35.432 155.643 33.608V28.904H147.099C144.635 28.904 142.843 29.352 141.723 30.248C140.635 31.144 140.091 32.376 140.091 33.944C140.091 35.576 140.699 36.872 141.915 37.832C143.131 38.76 144.843 39.224 147.051 39.224ZM174.268 41.192C172.252 41.192 170.332 40.888 168.508 40.28C166.684 39.672 165.26 38.904 164.236 37.976L165.34 36.056C166.364 36.92 167.676 37.64 169.276 38.216C170.908 38.792 172.604 39.08 174.364 39.08C176.892 39.08 178.748 38.664 179.932 37.832C181.148 37 181.756 35.848 181.756 34.376C181.756 33.32 181.42 32.488 180.748 31.88C180.108 31.272 179.308 30.824 178.348 30.536C177.388 30.248 176.06 29.944 174.364 29.624C172.38 29.272 170.78 28.888 169.564 28.472C168.348 28.056 167.308 27.384 166.444 26.456C165.58 25.528 165.148 24.248 165.148 22.616C165.148 20.632 165.964 19 167.596 17.72C169.26 16.408 171.612 15.752 174.652 15.752C176.252 15.752 177.836 15.976 179.404 16.424C180.972 16.872 182.252 17.464 183.244 18.2L182.14 20.12C181.116 19.384 179.948 18.824 178.636 18.44C177.324 18.056 175.98 17.864 174.604 17.864C172.268 17.864 170.508 18.296 169.324 19.16C168.14 20.024 167.548 21.16 167.548 22.568C167.548 23.688 167.884 24.568 168.556 25.208C169.228 25.816 170.044 26.28 171.004 26.6C171.996 26.888 173.372 27.208 175.132 27.56C177.084 27.912 178.652 28.296 179.836 28.712C181.052 29.096 182.076 29.736 182.908 30.632C183.74 31.528 184.156 32.76 184.156 34.328C184.156 36.408 183.292 38.072 181.564 39.32C179.836 40.568 177.404 41.192 174.268 41.192ZM203.286 39.416C202.678 39.992 201.91 40.44 200.982 40.76C200.086 41.048 199.142 41.192 198.15 41.192C195.974 41.192 194.294 40.6 193.11 39.416C191.926 38.2 191.334 36.52 191.334 34.376V18.008H186.726V15.944H191.334V10.472H193.734V15.944H201.702V18.008H193.734V34.136C193.734 35.768 194.118 37.016 194.886 37.88C195.686 38.712 196.854 39.128 198.39 39.128C199.958 39.128 201.254 38.664 202.278 37.736L203.286 39.416ZM209.979 15.944H212.379V41H209.979V15.944ZM211.179 9.848C210.635 9.848 210.171 9.672 209.787 9.32C209.403 8.936 209.211 8.472 209.211 7.928C209.211 7.384 209.403 6.92 209.787 6.536C210.171 6.152 210.635 5.96 211.179 5.96C211.723 5.96 212.187 6.152 212.571 6.536C212.955 6.888 213.147 7.336 213.147 7.88C213.147 8.424 212.955 8.888 212.571 9.272C212.187 9.656 211.723 9.848 211.179 9.848ZM232.43 41.192C229.998 41.192 227.822 40.648 225.902 39.56C223.982 38.472 222.478 36.968 221.39 35.048C220.302 33.096 219.758 30.904 219.758 28.472C219.758 26.008 220.302 23.816 221.39 21.896C222.478 19.944 223.982 18.44 225.902 17.384C227.822 16.296 229.998 15.752 232.43 15.752C234.446 15.752 236.27 16.152 237.902 16.952C239.566 17.72 240.91 18.856 241.934 20.36L240.158 21.656C239.262 20.408 238.142 19.48 236.798 18.872C235.486 18.232 234.03 17.912 232.43 17.912C230.478 17.912 228.718 18.36 227.15 19.256C225.614 20.12 224.398 21.352 223.502 22.952C222.638 24.552 222.206 26.392 222.206 28.472C222.206 30.552 222.638 32.392 223.502 33.992C224.398 35.592 225.614 36.84 227.15 37.736C228.718 38.6 230.478 39.032 232.43 39.032C234.03 39.032 235.486 38.728 236.798 38.12C238.142 37.48 239.262 36.536 240.158 35.288L241.934 36.584C240.91 38.088 239.566 39.24 237.902 40.04C236.27 40.808 234.446 41.192 232.43 41.192Z" fill="white"/>
</g>
<defs>
<clipPath id="clip0_13_2">
<rect width="250" height="48" fill="white"/>
</clipPath>
</defs>
</svg>
